<svg width="1000" height="1000" viewBox="0 0 1000 1000" fill="none" xmlns="http://www.w3.org/2000/svg">
<path d="M409.346 684.598L500.375 757.7L592.522 683.488L645.802 592.033L612.075 491.374L500.375 435.361L389.429 490.836L355.697 592.033L409.346 684.598Z" fill="#1090FF"/>
<path d="M500.375 158C500.375 158 461.394 185.736 355.697 323.667L389.429 490.836L444.902 324.418L500.375 158Z" fill="#0033AA"/>
<path d="M645.802 323.667C541.604 185.736 500.375 158 500.375 158L556.225 324.687L612.075 491.374L645.802 323.667Z" fill="#0033AA"/>
<path d="M389.429 490.836L500.375 435.361L444.902 324.418L389.429 490.836Z" fill="#0066EE"/>
<path d="M500.375 435.361L612.075 491.374L556.225 324.687L500.375 435.361Z" fill="#0066EE"/>
<path d="M747.034 559.049C740.285 511.679 718.184 419.482 645.802 323.667L612.075 491.374L747.034 559.049Z" fill="#1090FF"/>
<path d="M500.375 841.658L428.036 716.846L323.166 775.247C360.257 812.905 416.149 841.405 500.375 841.658Z" fill="#1090FF"/>
<path d="M573.088 716.846L500.375 841.658C585.096 841.913 641.064 813.24 678.036 775.247L573.088 716.846Z" fill="#1090FF"/>
<path d="M323.166 775.247L428.036 716.846L409.346 684.598L355.697 592.033L323.166 775.247Z" fill="#0066EE"/>
<path d="M573.088 716.846L678.036 775.247L645.802 592.033L592.522 683.488L573.088 716.846Z" fill="#0066EE"/>
<path d="M253.009 559.049C250 579.872 250 592.033 250 592.033C250 592.033 250.329 701.297 323.166 775.247L355.697 592.033L253.009 559.049Z" fill="#0033AA"/>
<path d="M750 592.033C750 592.033 750 579.872 747.034 559.049L645.802 592.033L678.036 775.247C750 701.297 750 592.033 750 592.033Z" fill="#0033AA"/>
<path d="M389.429 490.836L253.009 559.049L355.697 592.033L389.429 490.836Z" fill="#0066EE"/>
<path d="M747.034 559.049L612.075 491.374L645.802 592.033L747.034 559.049Z" fill="#0066EE"/>
<path fill-rule="evenodd" clip-rule="evenodd" d="M573.088 716.846L500.375 841.658V757.7L592.522 683.488L573.088 716.846Z" fill="#0033AA"/>
<path d="M428.036 716.846L500.375 841.658V757.7L409.346 684.598L428.036 716.846Z" fill="#0066EE"/>
<path fill-rule="evenodd" clip-rule="evenodd" d="M500.375 158V435.361L556.225 324.687L500.375 158Z" fill="#1090FF"/>
<path d="M500.375 158L444.902 324.418L500.375 435.361V158Z" fill="#50B0FF"/>
<path d="M355.697 323.667C282.274 419.482 259.855 511.679 253.009 559.049L389.429 490.836L355.697 323.667Z" fill="#50B0FF"/>
</svg>
